<?xml version="1.0" encoding="utf-8"?>
<!-- Generator: Adobe Illustrator 16.0.4, SVG Export Plug-In . SVG Version: 6.00 Build 0)  -->
<!DOCTYPE svg PUBLIC "-//W3C//DTD SVG 1.1//EN" "http://www.w3.org/Graphics/SVG/1.1/DTD/svg11.dtd">
<svg version="1.1" id="Layer_1" xmlns="http://www.w3.org/2000/svg" xmlns:xlink="http://www.w3.org/1999/xlink" x="0px" y="0px"
	 width="289.075px" height="62.65px" viewBox="0 0 289.075 62.65" enable-background="new 0 0 289.075 62.65" xml:space="preserve">
<g>
	<path fill="#FFFFFF" d="M31.483,59.31l-0.37-0.165c-0.262-0.116-6.477-2.912-12.772-9.124c-5.827-5.749-12.775-15.609-12.775-29.94
		c0-15.022,23.061-15.458,25.69-15.458L31.5,4.625l0.211-0.002c2.629,0,25.69,0.436,25.69,15.458
		c0,14.331-6.946,24.191-12.773,29.939c-6.297,6.212-12.511,9.008-12.773,9.124L31.483,59.31z M31.257,6.455
		c-2.441,0-23.858,0.382-23.858,13.626c0,10.976,4.099,20.594,12.181,28.59c5.207,5.15,10.481,7.927,11.904,8.623
		c1.423-0.696,6.698-3.473,11.904-8.623c8.083-7.996,12.182-17.614,12.182-28.59c0-13.244-21.417-13.626-23.858-13.626L31.5,6.456
		L31.257,6.455z"/>
</g>
<path fill="#FFFFFF" d="M52.718,21.03c0,24.226-21.234,33.99-21.234,33.99s-21.232-9.766-21.232-33.99
	c0-13.376,21.232-13.019,21.232-13.019S52.718,7.654,52.718,21.03z"/>
<path fill="#D14747" d="M42.873,21.251c0.032,0.099,0.054,0.198,0.054,0.309c0,0.551-0.446,0.997-0.997,0.997
	c-0.551,0-0.995-0.446-0.995-0.997c0-0.553,0.444-0.996,0.995-0.996c0.111,0,0.215,0.021,0.314,0.055l3.499-3.5l-7.216,1.031
	c1.704,3.977-2.273,6.815-2.273,6.815l2.273,2.273c0,0,2.841-3.977,6.818-2.273l1.029-7.216L42.873,21.251z"/>
<path fill="#D14747" d="M24.098,18.148l-7.216-1.031l3.493,3.496c0.095-0.031,0.194-0.051,0.299-0.051
	c0.55,0,0.996,0.443,0.996,0.996c0,0.551-0.446,0.997-0.996,0.997c-0.55,0-0.996-0.446-0.996-0.997c0-0.113,0.023-0.222,0.059-0.324
	l-3.488-3.485l1.031,7.216c3.979-1.702,6.818,2.273,6.818,2.273l2.272-2.273C26.37,24.965,22.393,22.125,24.098,18.148z"/>
<path fill="#D14747" d="M45.17,44.577L27.124,25.348l-2.646,2.646L43.75,46.076C44.117,45.479,44.6,44.969,45.17,44.577z"/>
<path fill="#D14747" d="M18.988,45.97l19.159-17.977l-2.646-2.646l-17.786,18.95C18.241,44.778,18.67,45.347,18.988,45.97z"/>
<g>
	<path fill="#FFFFFF" d="M89.466,26.779c-0.155,0.249-0.319,0.425-0.49,0.525c-0.172,0.102-0.39,0.151-0.654,0.151
		c-0.28,0-0.581-0.078-0.9-0.233c-0.319-0.155-0.688-0.33-1.109-0.525c-0.421-0.194-0.899-0.37-1.438-0.525
		c-0.537-0.155-1.172-0.233-1.904-0.233c-1.138,0-2.033,0.242-2.688,0.725c-0.654,0.483-0.981,1.114-0.981,1.894
		c0,0.515,0.167,0.945,0.503,1.297c0.335,0.351,0.778,0.659,1.332,0.924c0.553,0.265,1.18,0.502,1.881,0.712
		c0.701,0.211,1.417,0.44,2.149,0.689c0.732,0.25,1.449,0.533,2.15,0.854c0.701,0.32,1.328,0.725,1.881,1.215
		c0.553,0.491,0.997,1.079,1.332,1.766c0.335,0.686,0.502,1.511,0.502,2.477c0,1.153-0.21,2.217-0.631,3.189
		c-0.42,0.975-1.036,1.814-1.846,2.523c-0.811,0.709-1.811,1.262-3.003,1.659c-1.191,0.396-2.559,0.596-4.101,0.596
		c-0.826,0-1.633-0.074-2.419-0.222c-0.787-0.148-1.542-0.354-2.267-0.62c-0.725-0.265-1.395-0.576-2.01-0.935
		c-0.615-0.359-1.156-0.747-1.624-1.168l1.332-2.196c0.171-0.267,0.374-0.468,0.607-0.608c0.233-0.14,0.529-0.21,0.888-0.21
		s0.697,0.103,1.017,0.305c0.319,0.202,0.689,0.421,1.11,0.653c0.421,0.233,0.915,0.452,1.483,0.654
		c0.569,0.203,1.289,0.304,2.162,0.304c0.686,0,1.273-0.082,1.764-0.245c0.491-0.164,0.896-0.378,1.216-0.643
		s0.553-0.572,0.701-0.923c0.147-0.352,0.222-0.713,0.222-1.087c0-0.562-0.168-1.021-0.503-1.379
		c-0.335-0.358-0.778-0.671-1.331-0.936c-0.554-0.265-1.185-0.502-1.894-0.713c-0.709-0.21-1.434-0.439-2.173-0.689
		c-0.74-0.248-1.465-0.541-2.173-0.876c-0.71-0.335-1.341-0.76-1.894-1.272c-0.553-0.515-0.997-1.146-1.332-1.894
		s-0.502-1.65-0.502-2.711c0-0.98,0.194-1.916,0.584-2.805c0.39-0.888,0.962-1.662,1.718-2.324c0.755-0.662,1.697-1.191,2.827-1.59
		c1.13-0.396,2.435-0.596,3.914-0.596c1.651,0,3.155,0.271,4.511,0.817c1.354,0.546,2.484,1.263,3.388,2.149L89.466,26.779z"/>
	<path fill="#FFFFFF" d="M103.534,46.455c-2.072,0-3.669-0.588-4.791-1.765c-1.121-1.176-1.683-2.8-1.683-4.872v-13.39h-2.43
		c-0.313,0-0.581-0.103-0.807-0.305c-0.226-0.202-0.339-0.506-0.339-0.911v-2.29l3.855-0.632l1.216-6.543
		c0.062-0.312,0.206-0.553,0.432-0.724c0.227-0.172,0.511-0.258,0.854-0.258h2.991v7.548h6.31v4.113h-6.31v12.991
		c0,0.748,0.187,1.332,0.561,1.753c0.374,0.422,0.872,0.632,1.495,0.632c0.358,0,0.658-0.043,0.9-0.13
		c0.241-0.085,0.451-0.175,0.631-0.269c0.179-0.093,0.339-0.183,0.479-0.269c0.141-0.085,0.281-0.13,0.421-0.13
		c0.171,0,0.312,0.044,0.421,0.13c0.108,0.086,0.226,0.215,0.351,0.386l1.729,2.804c-0.841,0.701-1.807,1.231-2.897,1.589
		C105.831,46.275,104.702,46.455,103.534,46.455z"/>
	<path fill="#FFFFFF" d="M123.045,21.731c1.792,0,3.416,0.289,4.873,0.865c1.456,0.575,2.698,1.394,3.727,2.452
		c1.029,1.06,1.823,2.354,2.384,3.88s0.841,3.232,0.841,5.117c0,1.9-0.28,3.614-0.841,5.142c-0.561,1.526-1.355,2.827-2.384,3.901
		c-1.029,1.075-2.271,1.901-3.727,2.479c-1.457,0.576-3.081,0.864-4.873,0.864c-1.791,0-3.419-0.288-4.884-0.864
		c-1.464-0.576-2.715-1.402-3.75-2.479c-1.036-1.074-1.839-2.375-2.407-3.901s-0.853-3.24-0.853-5.142
		c0-1.885,0.284-3.591,0.853-5.117c0.568-1.526,1.371-2.819,2.407-3.88c1.035-1.06,2.286-1.877,3.75-2.452
		C119.626,22.021,121.254,21.731,123.045,21.731z M123.045,41.991c1.994,0,3.471-0.669,4.429-2.009s1.438-3.303,1.438-5.889
		c0-2.587-0.479-4.559-1.438-5.912c-0.958-1.355-2.435-2.033-4.429-2.033c-2.025,0-3.521,0.682-4.486,2.044
		c-0.966,1.364-1.448,3.33-1.448,5.901c0,2.569,0.482,4.528,1.448,5.877C119.525,41.318,121.02,41.991,123.045,41.991z"/>
	<path fill="#FFFFFF" d="M138.445,46.081V22.105h3.388c0.591,0,1.005,0.108,1.239,0.327s0.39,0.592,0.468,1.122l0.351,2.896
		c0.856-1.479,1.86-2.647,3.015-3.506c1.152-0.856,2.445-1.285,3.879-1.285c1.185,0,2.165,0.273,2.944,0.818l-0.748,4.323
		c-0.047,0.279-0.147,0.479-0.304,0.596c-0.155,0.117-0.366,0.175-0.631,0.175c-0.233,0-0.553-0.054-0.959-0.163
		c-0.404-0.109-0.941-0.164-1.611-0.164c-1.2,0-2.229,0.331-3.085,0.993c-0.856,0.663-1.581,1.633-2.173,2.909V46.08L138.445,46.081
		L138.445,46.081z"/>
	<path fill="#FFFFFF" d="M166.042,52.671c-0.172,0.405-0.394,0.714-0.666,0.924s-0.688,0.314-1.25,0.314h-4.299l4.485-9.604
		l-9.697-22.199h5.048c0.467,0,0.824,0.108,1.074,0.327c0.249,0.219,0.436,0.468,0.561,0.748l5.119,12.432
		c0.17,0.405,0.317,0.826,0.442,1.262c0.125,0.438,0.233,0.873,0.327,1.31c0.125-0.451,0.261-0.889,0.409-1.31
		c0.147-0.421,0.308-0.849,0.479-1.285l4.813-12.407c0.124-0.312,0.33-0.568,0.619-0.771c0.287-0.202,0.611-0.304,0.97-0.304h4.627
		L166.042,52.671z"/>
	<path fill="#FFFFFF" d="M188.568,22.105h4.58c0.437,0,0.802,0.102,1.099,0.304c0.295,0.203,0.481,0.46,0.561,0.771l3.436,12.806
		c0.188,0.701,0.34,1.387,0.457,2.056c0.115,0.671,0.229,1.341,0.338,2.011c0.172-0.67,0.354-1.34,0.549-2.011
		c0.194-0.669,0.4-1.354,0.619-2.056l3.974-12.854c0.094-0.312,0.28-0.567,0.562-0.771c0.279-0.202,0.606-0.304,0.98-0.304h2.548
		c0.42,0,0.771,0.102,1.051,0.304c0.28,0.203,0.468,0.46,0.562,0.771l3.927,13.087c0.202,0.67,0.385,1.319,0.549,1.95
		c0.163,0.632,0.323,1.267,0.479,1.904c0.107-0.669,0.229-1.34,0.36-2.01c0.134-0.669,0.3-1.362,0.503-2.079l3.553-12.806
		c0.078-0.312,0.265-0.568,0.561-0.771c0.296-0.202,0.639-0.304,1.027-0.304h4.371l-7.596,23.976h-4.65
		c-0.498,0-0.855-0.343-1.074-1.027l-4.322-13.857c-0.141-0.451-0.27-0.907-0.386-1.367c-0.117-0.459-0.215-0.914-0.292-1.366
		c-0.094,0.468-0.195,0.932-0.305,1.391c-0.108,0.46-0.233,0.924-0.373,1.391l-4.37,13.812c-0.22,0.686-0.64,1.027-1.263,1.027
		h-4.416L188.568,22.105z"/>
	<path fill="#FFFFFF" d="M247.245,46.081h-2.595c-0.545,0-0.974-0.082-1.285-0.245c-0.312-0.164-0.545-0.494-0.7-0.992l-0.515-1.706
		c-0.606,0.546-1.203,1.023-1.788,1.438c-0.584,0.412-1.188,0.759-1.811,1.039c-0.623,0.281-1.285,0.491-1.986,0.632
		s-1.48,0.21-2.337,0.21c-1.013,0-1.947-0.137-2.804-0.41c-0.857-0.272-1.594-0.684-2.209-1.229s-1.096-1.229-1.438-2.04
		c-0.343-0.813-0.515-1.759-0.515-2.837c0-0.907,0.237-1.802,0.713-2.687c0.476-0.883,1.267-1.68,2.372-2.391
		c1.105-0.712,2.578-1.302,4.416-1.771c1.839-0.469,4.121-0.702,6.848-0.702v-1.413c0-1.616-0.339-2.813-1.017-3.591
		c-0.679-0.778-1.663-1.166-2.956-1.166c-0.936,0-1.715,0.108-2.337,0.326c-0.623,0.22-1.165,0.465-1.624,0.736
		c-0.46,0.273-0.885,0.519-1.273,0.736c-0.39,0.219-0.818,0.327-1.285,0.327c-0.39,0-0.725-0.103-1.004-0.305
		c-0.281-0.202-0.508-0.452-0.679-0.748l-1.052-1.846c2.757-2.523,6.083-3.786,9.978-3.786c1.402,0,2.652,0.23,3.751,0.689
		c1.1,0.46,2.029,1.099,2.793,1.916s1.344,1.796,1.74,2.934c0.396,1.137,0.596,2.383,0.596,3.738v15.144H247.245z M236.028,42.482
		c0.592,0,1.137-0.054,1.637-0.161c0.498-0.107,0.969-0.269,1.412-0.483c0.444-0.214,0.872-0.479,1.285-0.793
		c0.413-0.313,0.83-0.687,1.251-1.115v-4.014c-1.683,0-3.089,0.105-4.219,0.317c-1.129,0.212-2.037,0.482-2.722,0.812
		c-0.687,0.329-1.174,0.715-1.461,1.153c-0.289,0.439-0.434,0.917-0.434,1.437c0,1.02,0.301,1.748,0.9,2.188
		C234.279,42.263,235.062,42.482,236.028,42.482z"/>
	<path fill="#FFFFFF" d="M251.988,46.081V22.105h3.388c0.593,0,1.006,0.108,1.24,0.327c0.232,0.219,0.389,0.592,0.467,1.122
		l0.351,2.896c0.856-1.479,1.86-2.647,3.015-3.506c1.152-0.856,2.445-1.285,3.879-1.285c1.185,0,2.166,0.273,2.944,0.818
		l-0.748,4.323c-0.047,0.279-0.147,0.479-0.304,0.596c-0.155,0.117-0.366,0.175-0.631,0.175c-0.233,0-0.553-0.054-0.959-0.163
		c-0.404-0.109-0.941-0.164-1.611-0.164c-1.2,0-2.229,0.331-3.085,0.993c-0.856,0.663-1.581,1.633-2.173,2.909V46.08L251.988,46.081
		L251.988,46.081z"/>
	<path fill="#FFFFFF" d="M284.375,26.779c-0.154,0.249-0.318,0.425-0.489,0.525c-0.173,0.102-0.39,0.151-0.654,0.151
		c-0.28,0-0.581-0.078-0.899-0.233c-0.319-0.155-0.688-0.33-1.109-0.525c-0.421-0.194-0.898-0.37-1.438-0.525
		c-0.537-0.155-1.173-0.233-1.904-0.233c-1.139,0-2.033,0.242-2.688,0.725c-0.653,0.483-0.981,1.114-0.981,1.894
		c0,0.515,0.168,0.945,0.504,1.297c0.335,0.351,0.777,0.659,1.332,0.924c0.553,0.265,1.18,0.502,1.881,0.712
		c0.701,0.211,1.417,0.44,2.148,0.689c0.732,0.25,1.449,0.533,2.15,0.854s1.328,0.725,1.881,1.215
		c0.553,0.491,0.997,1.079,1.332,1.766c0.335,0.686,0.502,1.511,0.502,2.477c0,1.153-0.21,2.217-0.631,3.189
		c-0.42,0.975-1.036,1.814-1.846,2.523c-0.812,0.709-1.812,1.262-3.004,1.659c-1.19,0.396-2.559,0.596-4.101,0.596
		c-0.825,0-1.633-0.074-2.419-0.222c-0.787-0.148-1.542-0.354-2.267-0.62c-0.726-0.265-1.396-0.576-2.011-0.935
		c-0.615-0.359-1.155-0.747-1.623-1.168l1.332-2.196c0.17-0.267,0.373-0.468,0.606-0.608c0.233-0.14,0.529-0.21,0.888-0.21
		c0.359,0,0.697,0.103,1.018,0.305c0.318,0.202,0.689,0.421,1.109,0.653c0.422,0.233,0.916,0.452,1.483,0.654
		c0.569,0.203,1.289,0.304,2.162,0.304c0.687,0,1.272-0.082,1.764-0.245c0.491-0.164,0.896-0.378,1.216-0.643
		s0.553-0.572,0.701-0.923c0.147-0.352,0.223-0.713,0.223-1.087c0-0.562-0.168-1.021-0.504-1.379
		c-0.334-0.358-0.777-0.671-1.33-0.936c-0.555-0.265-1.186-0.502-1.895-0.713c-0.709-0.21-1.434-0.439-2.173-0.689
		c-0.74-0.248-1.465-0.541-2.173-0.876c-0.711-0.335-1.342-0.76-1.895-1.272c-0.553-0.515-0.996-1.146-1.332-1.894
		c-0.334-0.747-0.502-1.65-0.502-2.711c0-0.98,0.194-1.916,0.584-2.805c0.391-0.888,0.963-1.662,1.719-2.324
		c0.754-0.662,1.696-1.191,2.826-1.59c1.131-0.396,2.436-0.596,3.914-0.596c1.651,0,3.155,0.271,4.512,0.817
		c1.354,0.546,2.483,1.263,3.388,2.149L284.375,26.779z"/>
</g>
</svg>
