<?xml version="1.0" encoding="utf-8"?>
<!-- Generator: Adobe Illustrator 16.0.0, SVG Export Plug-In . SVG Version: 6.00 Build 0)  -->
<!DOCTYPE svg PUBLIC "-//W3C//DTD SVG 1.1//EN" "http://www.w3.org/Graphics/SVG/1.1/DTD/svg11.dtd">
<svg version="1.1" id="Layer_1" xmlns="http://www.w3.org/2000/svg" xmlns:xlink="http://www.w3.org/1999/xlink" x="0px" y="0px"
	 width="62.652px" height="62.65px" viewBox="0 0 62.652 62.65" enable-background="new 0 0 62.652 62.65" xml:space="preserve">
<path fill="#FFFFFF" d="M62.652,51.312c0,6.262-5.076,11.339-11.34,11.339H11.34C5.077,62.65,0,57.573,0,51.312V11.339
	C0,5.077,5.077,0,11.34,0h39.973c6.264,0,11.34,5.077,11.34,11.339V51.312z"/>
<g>
	<path fill="#F1605F" d="M31.483,59.31l-0.37-0.165c-0.262-0.116-6.477-2.912-12.772-9.124C12.514,44.272,5.566,34.412,5.566,20.081
		c0-15.023,23.061-15.458,25.69-15.458L31.5,4.625l0.211-0.002c2.629,0,25.69,0.435,25.69,15.458
		c0,14.331-6.946,24.191-12.773,29.939c-6.297,6.212-12.511,9.008-12.773,9.124L31.483,59.31z M31.257,6.455
		c-2.441,0-23.858,0.382-23.858,13.626c0,10.975,4.099,20.594,12.181,28.59c5.207,5.15,10.481,7.926,11.904,8.623
		c1.423-0.697,6.698-3.473,11.904-8.623c8.083-7.996,12.182-17.615,12.182-28.59c0-13.244-21.417-13.626-23.858-13.626L31.5,6.456
		L31.257,6.455z"/>
</g>
<path fill="#F1605F" d="M52.718,21.03c0,24.226-21.234,33.99-21.234,33.99s-21.232-9.765-21.232-33.99
	c0-13.376,21.232-13.019,21.232-13.019S52.718,7.654,52.718,21.03z"/>
<path fill="#FFFFFF" d="M42.873,21.251c0.032,0.098,0.054,0.198,0.054,0.308c0,0.551-0.446,0.997-0.997,0.997
	s-0.995-0.446-0.995-0.997c0-0.552,0.444-0.996,0.995-0.996c0.111,0,0.215,0.022,0.314,0.055l3.499-3.5l-7.216,1.031
	c1.704,3.977-2.273,6.816-2.273,6.816l2.273,2.273c0,0,2.841-3.977,6.818-2.273l1.029-7.216L42.873,21.251z"/>
<path fill="#FFFFFF" d="M24.098,18.148l-7.216-1.031l3.493,3.496c0.095-0.031,0.194-0.051,0.299-0.051
	c0.55,0,0.996,0.444,0.996,0.996c0,0.551-0.446,0.997-0.996,0.997s-0.996-0.446-0.996-0.997c0-0.113,0.023-0.221,0.059-0.324
	l-3.488-3.485l1.031,7.216c3.979-1.703,6.818,2.273,6.818,2.273l2.272-2.273C26.37,24.965,22.393,22.125,24.098,18.148z"/>
<path fill="#FFFFFF" d="M45.17,44.577L27.124,25.348l-2.646,2.646L43.75,46.076C44.117,45.479,44.6,44.968,45.17,44.577z"/>
<path fill="#FFFFFF" d="M18.988,45.97l19.159-17.976l-2.646-2.646L17.715,44.299C18.241,44.778,18.67,45.347,18.988,45.97z"/>
<g>
</g>
<g>
</g>
<g>
</g>
<g>
</g>
<g>
</g>
<g>
</g>
</svg>
