<?xml version="1.0" encoding="utf-8"?>
<!-- Generator: Adobe Illustrator 16.0.0, SVG Export Plug-In . SVG Version: 6.00 Build 0)  -->
<!DOCTYPE svg PUBLIC "-//W3C//DTD SVG 1.1//EN" "http://www.w3.org/Graphics/SVG/1.1/DTD/svg11.dtd">
<svg version="1.1" id="Layer_1" xmlns="http://www.w3.org/2000/svg" xmlns:xlink="http://www.w3.org/1999/xlink" x="0px" y="0px"
	 width="289.075px" height="62.65px" viewBox="0 0 289.075 62.65" enable-background="new 0 0 289.075 62.65" xml:space="preserve">
<path fill="#F1605F" d="M62.652,51.312c0,6.262-5.076,11.339-11.34,11.339H11.34C5.077,62.65,0,57.573,0,51.312V11.339
	C0,5.077,5.077,0,11.34,0h39.973c6.264,0,11.34,5.077,11.34,11.339V51.312z"/>
<g>
	<path fill="#FFFFFF" d="M31.483,59.31l-0.37-0.165c-0.262-0.116-6.477-2.912-12.772-9.124C12.514,44.272,5.566,34.412,5.566,20.081
		c0-15.023,23.061-15.458,25.69-15.458L31.5,4.625l0.211-0.002c2.629,0,25.69,0.435,25.69,15.458
		c0,14.331-6.946,24.191-12.773,29.939c-6.297,6.212-12.511,9.008-12.773,9.124L31.483,59.31z M31.257,6.455
		c-2.441,0-23.858,0.382-23.858,13.626c0,10.975,4.099,20.594,12.181,28.59c5.207,5.15,10.481,7.926,11.904,8.623
		c1.423-0.697,6.698-3.473,11.904-8.623c8.083-7.996,12.182-17.615,12.182-28.59c0-13.244-21.417-13.626-23.858-13.626L31.5,6.456
		L31.257,6.455z"/>
</g>
<path fill="#FFFFFF" d="M52.718,21.03c0,24.226-21.234,33.99-21.234,33.99s-21.232-9.765-21.232-33.99
	c0-13.376,21.232-13.019,21.232-13.019S52.718,7.654,52.718,21.03z"/>
<path fill="#F1605F" d="M42.873,21.251c0.032,0.098,0.054,0.198,0.054,0.308c0,0.551-0.446,0.997-0.997,0.997
	s-0.995-0.446-0.995-0.997c0-0.552,0.444-0.996,0.995-0.996c0.111,0,0.215,0.022,0.314,0.055l3.499-3.5l-7.216,1.031
	c1.704,3.977-2.273,6.816-2.273,6.816l2.273,2.273c0,0,2.841-3.977,6.818-2.273l1.029-7.216L42.873,21.251z"/>
<path fill="#F1605F" d="M24.098,18.148l-7.216-1.031l3.493,3.496c0.095-0.031,0.194-0.051,0.299-0.051
	c0.55,0,0.996,0.444,0.996,0.996c0,0.551-0.446,0.997-0.996,0.997s-0.996-0.446-0.996-0.997c0-0.113,0.023-0.221,0.059-0.324
	l-3.488-3.485l1.031,7.216c3.979-1.703,6.818,2.273,6.818,2.273l2.272-2.273C26.37,24.965,22.393,22.125,24.098,18.148z"/>
<path fill="#F1605F" d="M45.17,44.577L27.124,25.348l-2.646,2.646L43.75,46.076C44.117,45.479,44.6,44.968,45.17,44.577z"/>
<path fill="#F1605F" d="M18.988,45.97l19.159-17.976l-2.646-2.646L17.715,44.299C18.241,44.778,18.67,45.347,18.988,45.97z"/>
<g>
	<path fill="#FFFFFF" d="M92.466,26.779c-0.155,0.249-0.319,0.425-0.49,0.525c-0.172,0.102-0.39,0.152-0.654,0.152
		c-0.28,0-0.581-0.078-0.9-0.234c-0.319-0.155-0.688-0.33-1.109-0.525c-0.421-0.194-0.899-0.37-1.438-0.525
		c-0.537-0.156-1.172-0.234-1.904-0.234c-1.138,0-2.033,0.242-2.688,0.725c-0.654,0.483-0.981,1.114-0.981,1.893
		c0,0.515,0.167,0.946,0.503,1.297c0.335,0.351,0.778,0.659,1.332,0.924c0.553,0.265,1.18,0.502,1.881,0.712
		c0.701,0.211,1.417,0.44,2.149,0.689c0.732,0.25,1.449,0.534,2.15,0.854s1.328,0.725,1.881,1.215
		c0.553,0.491,0.997,1.079,1.332,1.765s0.502,1.511,0.502,2.477c0,1.153-0.21,2.217-0.631,3.189
		c-0.42,0.975-1.036,1.815-1.846,2.524c-0.811,0.709-1.811,1.262-3.003,1.659c-1.191,0.396-2.559,0.596-4.101,0.596
		c-0.826,0-1.633-0.074-2.419-0.222c-0.787-0.148-1.542-0.354-2.267-0.62c-0.725-0.265-1.395-0.576-2.01-0.935
		s-1.156-0.747-1.624-1.168l1.332-2.196c0.171-0.266,0.374-0.468,0.607-0.608c0.233-0.14,0.529-0.21,0.888-0.21
		s0.697,0.102,1.017,0.304c0.319,0.203,0.689,0.421,1.11,0.654s0.915,0.452,1.483,0.654c0.569,0.203,1.289,0.304,2.162,0.304
		c0.686,0,1.273-0.082,1.764-0.245c0.491-0.164,0.896-0.378,1.216-0.643s0.553-0.572,0.701-0.923
		c0.147-0.351,0.222-0.713,0.222-1.087c0-0.561-0.168-1.021-0.503-1.379s-0.778-0.67-1.331-0.935
		c-0.554-0.265-1.185-0.502-1.894-0.713c-0.709-0.21-1.434-0.439-2.173-0.689c-0.74-0.249-1.465-0.541-2.173-0.876
		c-0.71-0.335-1.341-0.76-1.894-1.273c-0.553-0.515-0.997-1.146-1.332-1.893c-0.335-0.748-0.502-1.651-0.502-2.711
		c0-0.981,0.194-1.916,0.584-2.805c0.39-0.888,0.962-1.662,1.718-2.324c0.755-0.662,1.697-1.192,2.827-1.59
		c1.13-0.396,2.435-0.596,3.914-0.596c1.651,0,3.155,0.272,4.511,0.818c1.354,0.545,2.484,1.262,3.388,2.149L92.466,26.779z"/>
	<path fill="#FFFFFF" d="M106.534,46.455c-2.072,0-3.669-0.588-4.791-1.765c-1.121-1.176-1.683-2.8-1.683-4.872v-13.39h-2.43
		c-0.313,0-0.581-0.102-0.807-0.304s-0.339-0.506-0.339-0.911v-2.29l3.855-0.632l1.216-6.543c0.062-0.312,0.206-0.553,0.432-0.724
		c0.227-0.172,0.511-0.258,0.854-0.258h2.991v7.548h6.31v4.113h-6.31v12.992c0,0.748,0.187,1.332,0.561,1.753
		s0.872,0.631,1.495,0.631c0.358,0,0.658-0.043,0.9-0.129c0.241-0.085,0.451-0.175,0.631-0.269c0.179-0.093,0.339-0.183,0.479-0.269
		c0.141-0.085,0.281-0.129,0.421-0.129c0.171,0,0.312,0.044,0.421,0.129c0.108,0.086,0.226,0.215,0.351,0.386l1.729,2.804
		c-0.841,0.701-1.807,1.231-2.897,1.589C108.831,46.275,107.702,46.455,106.534,46.455z"/>
	<path fill="#FFFFFF" d="M126.045,21.731c1.792,0,3.416,0.289,4.873,0.865c1.456,0.576,2.698,1.394,3.727,2.453
		s1.823,2.353,2.384,3.879c0.561,1.527,0.841,3.233,0.841,5.118c0,1.9-0.28,3.614-0.841,5.141c-0.561,1.527-1.355,2.827-2.384,3.902
		s-2.271,1.901-3.727,2.478c-1.457,0.576-3.081,0.864-4.873,0.864c-1.791,0-3.419-0.288-4.884-0.864
		c-1.464-0.576-2.715-1.402-3.75-2.478c-1.036-1.075-1.839-2.375-2.407-3.902c-0.568-1.526-0.853-3.24-0.853-5.141
		c0-1.885,0.284-3.591,0.853-5.118c0.568-1.526,1.371-2.819,2.407-3.879c1.035-1.06,2.286-1.877,3.75-2.453
		C122.626,22.021,124.254,21.731,126.045,21.731z M126.045,41.991c1.994,0,3.471-0.669,4.429-2.009s1.438-3.303,1.438-5.889
		s-0.479-4.558-1.438-5.912c-0.958-1.355-2.435-2.033-4.429-2.033c-2.025,0-3.521,0.682-4.486,2.044
		c-0.966,1.364-1.448,3.33-1.448,5.901c0,2.57,0.482,4.529,1.448,5.877S124.02,41.991,126.045,41.991z"/>
	<path fill="#FFFFFF" d="M141.445,46.081V22.105h3.388c0.592,0,1.005,0.109,1.239,0.327c0.233,0.219,0.389,0.592,0.467,1.122
		l0.351,2.897c0.856-1.48,1.861-2.648,3.015-3.506c1.152-0.856,2.445-1.285,3.879-1.285c1.184,0,2.165,0.273,2.944,0.818
		l-0.748,4.323c-0.047,0.28-0.147,0.479-0.304,0.596c-0.155,0.117-0.366,0.175-0.631,0.175c-0.233,0-0.553-0.054-0.958-0.163
		s-0.942-0.164-1.612-0.164c-1.2,0-2.228,0.331-3.085,0.993c-0.856,0.663-1.581,1.633-2.173,2.909v14.933H141.445z"/>
	<path fill="#FFFFFF" d="M169.042,52.671c-0.172,0.405-0.394,0.713-0.666,0.923c-0.273,0.21-0.689,0.315-1.25,0.315h-4.3
		l4.486-9.604l-9.697-22.199h5.047c0.468,0,0.825,0.109,1.075,0.327c0.249,0.219,0.436,0.468,0.561,0.748l5.118,12.432
		c0.171,0.405,0.318,0.826,0.443,1.262c0.125,0.437,0.233,0.873,0.327,1.309c0.125-0.451,0.261-0.888,0.409-1.309
		c0.147-0.421,0.308-0.849,0.479-1.285l4.813-12.408c0.124-0.312,0.331-0.568,0.619-0.771c0.288-0.202,0.611-0.304,0.97-0.304h4.627
		L169.042,52.671z"/>
	<path fill="#FFFFFF" d="M191.568,22.105h4.58c0.436,0,0.802,0.102,1.098,0.304c0.296,0.203,0.482,0.46,0.561,0.771l3.436,12.806
		c0.187,0.701,0.339,1.387,0.456,2.056c0.116,0.671,0.229,1.341,0.339,2.01c0.171-0.669,0.354-1.339,0.549-2.01
		c0.194-0.669,0.4-1.354,0.619-2.056l3.973-12.853c0.094-0.312,0.28-0.568,0.561-0.771c0.28-0.202,0.607-0.304,0.981-0.304h2.548
		c0.42,0,0.771,0.102,1.051,0.304c0.28,0.203,0.468,0.46,0.562,0.771l3.926,13.086c0.202,0.67,0.385,1.32,0.549,1.951
		c0.163,0.631,0.323,1.266,0.479,1.904c0.108-0.669,0.229-1.34,0.361-2.01c0.133-0.669,0.3-1.362,0.503-2.079l3.552-12.806
		c0.078-0.312,0.265-0.568,0.561-0.771c0.296-0.202,0.639-0.304,1.028-0.304h4.37l-7.595,23.976h-4.65
		c-0.499,0-0.856-0.343-1.075-1.028l-4.322-13.857c-0.141-0.451-0.27-0.907-0.386-1.367c-0.117-0.459-0.215-0.914-0.292-1.366
		c-0.094,0.467-0.195,0.931-0.304,1.39c-0.109,0.46-0.234,0.924-0.374,1.391l-4.37,13.811c-0.219,0.686-0.639,1.028-1.262,1.028
		h-4.417L191.568,22.105z"/>
	<path fill="#FFFFFF" d="M250.244,46.081h-2.594c-0.545,0-0.974-0.082-1.285-0.245c-0.312-0.164-0.545-0.494-0.701-0.993
		l-0.514-1.706c-0.607,0.546-1.203,1.024-1.788,1.438c-0.584,0.412-1.188,0.759-1.811,1.039c-0.623,0.281-1.285,0.491-1.986,0.632
		c-0.701,0.14-1.48,0.21-2.337,0.21c-1.013,0-1.947-0.137-2.804-0.41c-0.857-0.273-1.594-0.684-2.209-1.23s-1.095-1.228-1.437-2.04
		c-0.343-0.813-0.515-1.759-0.515-2.837c0-0.907,0.237-1.802,0.713-2.686c0.475-0.883,1.266-1.68,2.372-2.391
		c1.105-0.712,2.578-1.302,4.416-1.771c1.839-0.469,4.121-0.703,6.848-0.703v-1.413c0-1.616-0.339-2.813-1.017-3.591
		s-1.663-1.166-2.956-1.166c-0.936,0-1.714,0.109-2.337,0.327c-0.623,0.219-1.165,0.464-1.624,0.736
		c-0.46,0.273-0.885,0.519-1.273,0.736c-0.39,0.219-0.818,0.327-1.286,0.327c-0.389,0-0.724-0.102-1.004-0.304
		c-0.281-0.202-0.507-0.452-0.678-0.748l-1.052-1.846c2.757-2.523,6.083-3.786,9.978-3.786c1.402,0,2.652,0.23,3.751,0.689
		c1.099,0.46,2.029,1.099,2.793,1.916c0.763,0.818,1.343,1.796,1.74,2.934c0.397,1.137,0.596,2.383,0.596,3.738V46.081z
		 M239.028,42.482c0.592,0,1.137-0.054,1.636-0.161c0.498-0.107,0.97-0.269,1.413-0.483c0.444-0.214,0.872-0.479,1.285-0.793
		s0.83-0.687,1.251-1.116v-4.013c-1.683,0-3.089,0.105-4.219,0.317c-1.129,0.212-2.037,0.483-2.722,0.813
		c-0.686,0.329-1.173,0.714-1.461,1.153s-0.433,0.917-0.433,1.436c0,1.02,0.3,1.749,0.9,2.188
		C237.279,42.263,238.062,42.482,239.028,42.482z"/>
	<path fill="#FFFFFF" d="M254.988,46.081V22.105h3.388c0.592,0,1.005,0.109,1.239,0.327c0.233,0.219,0.389,0.592,0.467,1.122
		l0.351,2.897c0.856-1.48,1.861-2.648,3.015-3.506c1.152-0.856,2.445-1.285,3.879-1.285c1.184,0,2.165,0.273,2.944,0.818
		l-0.748,4.323c-0.047,0.28-0.147,0.479-0.304,0.596c-0.155,0.117-0.366,0.175-0.631,0.175c-0.233,0-0.553-0.054-0.958-0.163
		s-0.942-0.164-1.612-0.164c-1.2,0-2.228,0.331-3.085,0.993c-0.856,0.663-1.581,1.633-2.173,2.909v14.933H254.988z"/>
	<path fill="#FFFFFF" d="M287.376,26.779c-0.155,0.249-0.319,0.425-0.49,0.525c-0.172,0.102-0.39,0.152-0.654,0.152
		c-0.28,0-0.581-0.078-0.9-0.234c-0.319-0.155-0.688-0.33-1.109-0.525c-0.421-0.194-0.899-0.37-1.438-0.525
		c-0.537-0.156-1.172-0.234-1.904-0.234c-1.138,0-2.033,0.242-2.688,0.725c-0.654,0.483-0.981,1.114-0.981,1.893
		c0,0.515,0.167,0.946,0.503,1.297c0.335,0.351,0.778,0.659,1.332,0.924c0.553,0.265,1.18,0.502,1.881,0.712
		c0.701,0.211,1.417,0.44,2.149,0.689c0.732,0.25,1.449,0.534,2.15,0.854s1.328,0.725,1.881,1.215
		c0.553,0.491,0.997,1.079,1.332,1.765s0.502,1.511,0.502,2.477c0,1.153-0.21,2.217-0.631,3.189
		c-0.42,0.975-1.036,1.815-1.846,2.524c-0.811,0.709-1.811,1.262-3.003,1.659c-1.191,0.396-2.559,0.596-4.101,0.596
		c-0.826,0-1.633-0.074-2.419-0.222c-0.787-0.148-1.542-0.354-2.267-0.62c-0.725-0.265-1.395-0.576-2.01-0.935
		s-1.156-0.747-1.624-1.168l1.332-2.196c0.171-0.266,0.374-0.468,0.607-0.608c0.233-0.14,0.529-0.21,0.888-0.21
		s0.697,0.102,1.017,0.304c0.319,0.203,0.689,0.421,1.11,0.654s0.915,0.452,1.483,0.654c0.569,0.203,1.289,0.304,2.162,0.304
		c0.686,0,1.273-0.082,1.764-0.245c0.491-0.164,0.896-0.378,1.216-0.643s0.553-0.572,0.701-0.923
		c0.147-0.351,0.222-0.713,0.222-1.087c0-0.561-0.168-1.021-0.503-1.379s-0.778-0.67-1.331-0.935
		c-0.554-0.265-1.185-0.502-1.894-0.713c-0.709-0.21-1.434-0.439-2.173-0.689c-0.74-0.249-1.465-0.541-2.173-0.876
		c-0.71-0.335-1.341-0.76-1.894-1.273c-0.553-0.515-0.997-1.146-1.332-1.893c-0.335-0.748-0.502-1.651-0.502-2.711
		c0-0.981,0.194-1.916,0.584-2.805c0.39-0.888,0.962-1.662,1.718-2.324c0.755-0.662,1.697-1.192,2.827-1.59
		c1.13-0.396,2.435-0.596,3.914-0.596c1.651,0,3.155,0.272,4.511,0.818c1.354,0.545,2.484,1.262,3.388,2.149L287.376,26.779z"/>
</g>
<g>
</g>
<g>
</g>
<g>
</g>
<g>
</g>
<g>
</g>
<g>
</g>
</svg>
